<svg xmlns="http://www.w3.org/2000/svg" width="1200" height="1200" fill="none"><rect width="1200" height="1200" fill="#ffffff"/><g opacity=".4"><g opacity=".5"><path fill="#fcfcfa" d="M600.709 875c-151.64 0-274.5-122.86-274.5-274.5s122.86-274.5 274.5-274.5 274.5 122.86 274.5 274.5-122.86 274.5-274.5 274.5Z"/><path stroke="#e5e5e5" stroke-width="3.5" d="M600.709 875c-151.64 0-274.5-122.86-274.5-274.5s122.86-274.5 274.5-274.5 274.5 122.86 274.5 274.5-122.86 274.5-274.5 274.5Z"/></g><path stroke="url(#a)" stroke-width="3.5" d="M0-1.75h800" transform="scale(1 -1) rotate(45 1163.11 91.165)"/><path stroke="url(#b)" stroke-width="3.5" d="M275 600h650"/><path stroke="url(#c)" stroke-width="3.5" d="M600 925V275"/><path stroke="url(#d)" stroke-width="3.5" d="m925 925-650-650"/><path fill="#fcfcfa" d="M600.709 715c-63.411 0-114.79-51.379-114.79-114.79s51.379-114.79 114.79-114.79 114.79 51.379 114.79 114.79-51.379 114.79-114.79 114.79Z"/><g clip-path="url(#e)" transform="translate(600.709 600.21) scale(2.5) translate(-600.709 -600.21)"><path fill="#888888" fill-rule="evenodd" d="M616.426 586.58h-31.434v16.176l3.553-3.554.531-.531h9.068l.074-.074 8.463-8.463h2.565l7.18 7.181V586.58Zm-15.715 14.654 3.698 3.699 1.283 1.282-2.565 2.565-1.282-1.283-5.2-5.199h-6.066l-5.514 5.514-.073.073v2.876a2.418 2.418 0 0 0 2.418 2.418h26.598a2.418 2.418 0 0 0 2.418-2.418v-8.317l-8.463-8.463-7.181 7.181-.071.072Zm-19.347 5.442v4.085a6.045 6.045 0 0 0 6.046 6.045h26.598a6.044 6.044 0 0 0 6.045-6.045v-7.108l1.356-1.355-1.282-1.283-.074-.073v-17.989h-38.689v23.43l-.146.146.146.147Z" clip-rule="evenodd"/></g><path stroke="#e5e5e5" stroke-width="3.5" d="M600.709 715c-63.411 0-114.79-51.379-114.79-114.79s51.379-114.79 114.79-114.79 114.79 51.379 114.79 114.79-51.379 114.79-114.79 114.79Z"/></g><defs><linearGradient id="a" x1="800" x2="0" y1="0" y2="0" gradientUnits="userSpaceOnUse"><stop stop-color="#e5e5e5" stop-opacity="0"/><stop offset=".208" stop-color="#e5e5e5"/><stop offset=".792" stop-color="#e5e5e5"/><stop offset="1" stop-color="#e5e5e5" stop-opacity="0"/></linearGradient><linearGradient id="b" x1="925" x2="275" y1="600" y2="600" gradientUnits="userSpaceOnUse"><stop stop-color="#e5e5e5" stop-opacity="0"/><stop offset=".208" stop-color="#e5e5e5"/><stop offset=".792" stop-color="#e5e5e5"/><stop offset="1" stop-color="#e5e5e5" stop-opacity="0"/></linearGradient><linearGradient id="c" x1="600" x2="600" y1="275" y2="925" gradientUnits="userSpaceOnUse"><stop stop-color="#e5e5e5" stop-opacity="0"/><stop offset=".208" stop-color="#e5e5e5"/><stop offset=".792" stop-color="#e5e5e5"/><stop offset="1" stop-color="#e5e5e5" stop-opacity="0"/></linearGradient><linearGradient id="d" x1="275" x2="925" y1="275" y2="925" gradientUnits="userSpaceOnUse"><stop stop-color="#e5e5e5" stop-opacity="0"/><stop offset=".208" stop-color="#e5e5e5"/><stop offset=".792" stop-color="#e5e5e5"/><stop offset="1" stop-color="#e5e5e5" stop-opacity="0"/></linearGradient><clipPath id="e"><path fill="#fcfcfa" d="M581.364 580.535h38.689v38.689h-38.689z"/></clipPath></defs></svg>